<svg data-v-423bf9ae="" xmlns="http://www.w3.org/2000/svg" viewBox="0 0 49.23830508865637 60" class="font"><!----><!----><defs data-v-423bf9ae=""><linearGradient data-v-423bf9ae="" gradientTransform="rotate(25)" id="13419b67-248a-470d-8d8d-15042e221a75" x1="0%" y1="0%" x2="100%" y2="0%"><stop data-v-423bf9ae="" offset="0%" style="stop-color: rgb(0, 10, 104); stop-opacity: 1;"></stop><stop data-v-423bf9ae="" offset="100%" style="stop-color: rgb(0, 196, 238); stop-opacity: 1;"></stop></linearGradient></defs><g data-v-423bf9ae="" id="2cd3e8e0-2f08-4fa4-8981-363e78dd36f4" fill="url(#13419b67-248a-470d-8d8d-15042e221a75)" transform="matrix(5.806403562405547,0,0,5.806403562405547,-6.503172850445559,-1.9326703755865147)"><path d="M9.60 10.50L9.60 10.50L9.60 0.50C9.60 0.28 9.27 0.28 9.27 0.50L9.27 10.50C9.27 10.71 9.60 10.71 9.60 10.50ZM1.44 10.50L1.44 10.50L1.44 0.50C1.44 0.28 1.12 0.28 1.12 0.50L1.12 10.50C1.12 10.71 1.44 10.71 1.44 10.50ZM2.97 0.59L2.97 0.59L7.31 6.82C7.39 6.96 7.62 6.87 7.62 6.72L7.62 0.50C7.62 0.28 7.28 0.28 7.28 0.50L7.28 6.20L3.22 0.41C3.11 0.22 2.84 0.42 2.97 0.59ZM7.77 10.40L7.77 10.40L3.43 4.17C3.32 4.05 3.12 4.12 3.12 4.27L3.12 10.50C3.12 10.71 3.46 10.71 3.46 10.50L3.46 4.79L7.49 10.60C7.63 10.77 7.88 10.58 7.77 10.40Z"></path></g><!----><!----></svg>